/* XPM */
static char * C:\Users\posera\Desktop\CreditProjekt\ltcbaset\credit_master\share\pixmaps\bitcoin32_xpm[] = {
"32 32 598 2",
"  	c None",
". 	c #CF2529",
"+ 	c #CD2529",
"@ 	c #CB2527",
"# 	c #CD2527",
"$ 	c #D42A2C",
"% 	c #D42A2D",
"& 	c #D32A2C",
"* 	c #D22A2C",
"= 	c #D12A2C",
"- 	c #D02A2C",
"; 	c #CF2A2C",
"> 	c #CE2A2B",
", 	c #C92527",
"' 	c #D02B2C",
") 	c #CF2B2C",
"! 	c #CE2B2C",
"~ 	c #CD2B2C",
"{ 	c #CC2B2C",
"] 	c #CB2B2C",
"^ 	c #CA2A2B",
"/ 	c #C52527",
"( 	c #CB2A2B",
"_ 	c #CA2B2C",
": 	c #C63B36",
"< 	c #C6413A",
"[ 	c #C5413A",
"} 	c #C4413A",
"| 	c #C44139",
"1 	c #C34139",
"2 	c #C23833",
"3 	c #C62A2B",
"4 	c #BF2527",
"5 	c #C52A2B",
"6 	c #C45546",
"7 	c #E1BB88",
"8 	c #EED79B",
"9 	c #EED69A",
"0 	c #EED699",
"a 	c #EED698",
"b 	c #EDD698",
"c 	c #DEB280",
"d 	c #BF483D",
"e 	c #C12A2A",
"f 	c #C1292A",
"g 	c #BB2525",
"h 	c #C0292A",
"i 	c #CB7D5E",
"j 	c #FDF0A8",
"k 	c #FDF0A7",
"l 	c #FDF0A6",
"m 	c #FDF0A5",
"n 	c #FDF0A4",
"o 	c #FDEFA4",
"p 	c #FDEFA3",
"q 	c #FAEDA2",
"r 	c #C56C52",
"s 	c #BD2929",
"t 	c #BC2929",
"u 	c #B72525",
"v 	c #BD2A2A",
"w 	c #BC2A2A",
"x 	c #CA835F",
"y 	c #FCEEA1",
"z 	c #FDEFA1",
"A 	c #FDEFA0",
"B 	c #FCEEA0",
"C 	c #FCED9F",
"D 	c #FCED9E",
"E 	c #FCED9D",
"F 	c #FDEE9D",
"G 	c #FDEE9C",
"H 	c #FBEC9B",
"I 	c #C37152",
"J 	c #B82929",
"K 	c #B72928",
"L 	c #B12525",
"M 	c #B82A29",
"N 	c #B72A29",
"O 	c #B72929",
"P 	c #C8835C",
"Q 	c #FCED9A",
"R 	c #FDED9A",
"S 	c #EDDB8F",
"T 	c #CC8E63",
"U 	c #C37956",
"V 	c #C27956",
"W 	c #C17955",
"X 	c #BF7B54",
"Y 	c #C07955",
"Z 	c #C27955",
"` 	c #CD9264",
" .	c #F3E290",
"..	c #FDEC96",
"+.	c #FBEA94",
"@.	c #C1704F",
"#.	c #B32928",
"$.	c #AD2523",
"%.	c #B32A28",
"&.	c #B22928",
"*.	c #C68258",
"=.	c #FCEB94",
"-.	c #FDEB93",
";.	c #D9AB6F",
">.	c #AF2B29",
",.	c #B12928",
"'.	c #B02927",
").	c #B2421D",
"!.	c #C46812",
"~.	c #CF800B",
"{.	c #C66C11",
"].	c #A82F23",
"^.	c #B02928",
"/.	c #AF2928",
"(.	c #AC2F2A",
"_.	c #DFB874",
":.	c #FDEA8F",
"<.	c #FBE88E",
"[.	c #BE6F4C",
"}.	c #AE2927",
"|.	c #A92523",
"1.	c #AE2928",
"2.	c #AD2927",
"3.	c #C48155",
"4.	c #FCE98D",
"5.	c #FDEA8D",
"6.	c #D4A266",
"7.	c #AB2B28",
"8.	c #AC2927",
"9.	c #A42A25",
"0.	c #C26513",
"a.	c #DE9B04",
"b.	c #F3B100",
"c.	c #F4B200",
"d.	c #EDAD00",
"e.	c #B25716",
"f.	c #AA2827",
"g.	c #AB2927",
"h.	c #A92E29",
"i.	c #DBB16C",
"j.	c #FCE989",
"k.	c #FAE787",
"l.	c #BC6E49",
"m.	c #A92826",
"n.	c #A32321",
"o.	c #AA2826",
"p.	c #AA2927",
"q.	c #A92927",
"r.	c #A82826",
"s.	c #C28051",
"t.	c #FCE887",
"u.	c #FCE886",
"v.	c #D3A162",
"w.	c #A62A27",
"x.	c #A82927",
"y.	c #A02A24",
"z.	c #C56F10",
"A.	c #F2B000",
"B.	c #E3A601",
"C.	c #B15F13",
"D.	c #A52826",
"E.	c #A62926",
"F.	c #A42E29",
"G.	c #DAB067",
"H.	c #FCE782",
"I.	c #FAE581",
"J.	c #B96D46",
"K.	c #A42826",
"L.	c #9F2321",
"M.	c #A52926",
"N.	c #A42926",
"O.	c #BF7F4E",
"P.	c #FBE680",
"Q.	c #FCE680",
"R.	c #D1A15D",
"S.	c #A12A26",
"T.	c #A32926",
"U.	c #A32826",
"V.	c #BB6014",
"W.	c #F0AF00",
"X.	c #EFAE00",
"Y.	c #D09304",
"Z.	c #AA481B",
"`.	c #A12926",
" +	c #A02E27",
".+	c #D8AF62",
"++	c #FCE57C",
"@+	c #FAE37A",
"#+	c #B66D43",
"$+	c #A02825",
"%+	c #9F2825",
"&+	c #9B2321",
"*+	c #A02925",
"=+	c #BD7E4A",
"-+	c #FBE479",
";+	c #FCE579",
">+	c #CF9F59",
",+	c #9D2A26",
"'+	c #9E2925",
")+	c #9F3221",
"!+	c #D58F07",
"~+	c #EAAB00",
"{+	c #DA9F01",
"]+	c #B4701E",
"^+	c #9A2925",
"/+	c #9D2925",
"(+	c #9C2925",
"_+	c #9B2E27",
":+	c #D7AE5D",
"<+	c #FCE475",
"[+	c #FAE274",
"}+	c #B46C40",
"|+	c #9B2824",
"1+	c #95231F",
"2+	c #9B2925",
"3+	c #9A2824",
"4+	c #BB7E47",
"5+	c #FBE372",
"6+	c #FCE372",
"7+	c #CE9E55",
"8+	c #982A25",
"9+	c #9D361F",
"0+	c #D59405",
"a+	c #E2A501",
"b+	c #D29C0A",
"c+	c #DCB341",
"d+	c #DBBA71",
"e+	c #C38A57",
"f+	c #A04734",
"g+	c #982824",
"h+	c #972824",
"i+	c #972D26",
"j+	c #D6AD58",
"k+	c #FCE26E",
"l+	c #FAE06D",
"m+	c #B16C3E",
"n+	c #962724",
"o+	c #91231F",
"p+	c #962824",
"q+	c #B97C44",
"r+	c #FBE16C",
"s+	c #FCE26C",
"t+	c #CD9D50",
"u+	c #942924",
"v+	c #952824",
"w+	c #942723",
"x+	c #A65713",
"y+	c #CA9509",
"z+	c #D29D10",
"A+	c #D4A72E",
"B+	c #E3BF59",
"C+	c #F5D881",
"D+	c #F6D982",
"E+	c #D1A566",
"F+	c #983D2E",
"G+	c #932823",
"H+	c #922D25",
"I+	c #D6AB53",
"J+	c #FBE067",
"K+	c #F9DE66",
"L+	c #AF6B3B",
"M+	c #922723",
"N+	c #912723",
"O+	c #8D231F",
"P+	c #922823",
"Q+	c #912823",
"R+	c #B77C40",
"S+	c #FBE066",
"T+	c #FBE065",
"U+	c #CB9C4C",
"V+	c #8F2923",
"W+	c #902823",
"X+	c #90311F",
"Y+	c #B5812A",
"Z+	c #DABB62",
"`+	c #F0D37D",
" @	c #F0D37E",
".@	c #9F5339",
"+@	c #8E2823",
"@@	c #8E2D24",
"#@	c #D4AA4F",
"$@	c #FBDF61",
"%@	c #F9DD60",
"&@	c #AC6A38",
"*@	c #8D2722",
"=@	c #87231D",
"-@	c #8D2823",
";@	c #8C2722",
">@	c #B47B3D",
",@	c #FADE5F",
"'@	c #FBDE5F",
")@	c #CA9B47",
"!@	c #8B2923",
"~@	c #8B2822",
"{@	c #9F4E16",
"]@	c #BE8A2D",
"^@	c #E0BA4E",
"/@	c #E7C76C",
"(@	c #ECCF77",
"_@	c #EDCF78",
":@	c #E7C86E",
"<@	c #CFAA47",
"[@	c #A76516",
"}@	c #923B1B",
"|@	c #8A2D23",
"1@	c #D3A94A",
"2@	c #FBDD5A",
"3@	c #F9DB5A",
"4@	c #A96A35",
"5@	c #882722",
"6@	c #83231D",
"7@	c #882822",
"8@	c #872722",
"9@	c #B27A39",
"0@	c #FADC58",
"a@	c #FBDD58",
"b@	c #C89A43",
"c@	c #862922",
"d@	c #872822",
"e@	c #862822",
"f@	c #8A351C",
"g@	c #A05714",
"h@	c #B17419",
"i@	c #C2901C",
"j@	c #D3A11A",
"k@	c #D39E11",
"l@	c #DDA102",
"m@	c #BF7C0A",
"n@	c #833220",
"o@	c #D2A845",
"p@	c #FBDC54",
"q@	c #F9DA53",
"r@	c #A76932",
"s@	c #832721",
"t@	c #7D231D",
"u@	c #842721",
"v@	c #893A25",
"w@	c #9D592D",
"x@	c #812721",
"y@	c #822721",
"z@	c #B07936",
"A@	c #FADB51",
"B@	c #FBDB51",
"C@	c #C7993F",
"D@	c #812921",
"E@	c #98532B",
"F@	c #904828",
"G@	c #8A3C19",
"H@	c #C48408",
"I@	c #EBAB00",
"J@	c #EEAE00",
"K@	c #D49803",
"L@	c #8A3F1B",
"M@	c #D1A640",
"N@	c #FBDA4D",
"O@	c #F9D84C",
"P@	c #A4682F",
"Q@	c #7F2620",
"R@	c #7E2620",
"S@	c #79211B",
"T@	c #813222",
"U@	c #C18F39",
"V@	c #EECF49",
"W@	c #AC7131",
"X@	c #AE7833",
"Y@	c #FAD94B",
"Z@	c #FBDA4B",
"`@	c #C5983A",
" #	c #7D2820",
".#	c #9E5D2C",
"+#	c #DFBA41",
"@#	c #CFA23C",
"##	c #8D4626",
"$#	c #7C2720",
"%#	c #7D2C1D",
"&#	c #C07B0B",
"*#	c #B77A09",
"=#	c #7F331E",
"-#	c #D0A53B",
";#	c #FAD847",
">#	c #F8D646",
",#	c #A1672D",
"'#	c #7A2620",
")#	c #79261F",
"!#	c #75211B",
"~#	c #792820",
"{#	c #AC772F",
"]#	c #FAD846",
"^#	c #FAD845",
"/#	c #E7C540",
"(#	c #A3682C",
"_#	c #AC782F",
":#	c #FAD844",
"<#	c #C49636",
"[#	c #945627",
"}#	c #D8B13A",
"|#	c #FAD843",
"1#	c #FAD743",
"2#	c #C19434",
"3#	c #7C3121",
"4#	c #9B5413",
"5#	c #CA9004",
"6#	c #955014",
"7#	c #782C20",
"8#	c #CEA436",
"9#	c #FAD740",
"0#	c #F8D53F",
"a#	c #9F6729",
"b#	c #75261F",
"c#	c #71211B",
"d#	c #9D642A",
"e#	c #E3C03A",
"f#	c #FAD63F",
"g#	c #E0BC38",
"h#	c #D0AA35",
"i#	c #F9D63E",
"j#	c #FAD63D",
"k#	c #D8B336",
"l#	c #D1AA34",
"m#	c #FAD63C",
"n#	c #F6D33C",
"o#	c #AA772C",
"p#	c #70261E",
"q#	c #A4620F",
"r#	c #F1AF00",
"s#	c #C28905",
"t#	c #985612",
"u#	c #71261E",
"v#	c #732C1F",
"w#	c #CDA331",
"x#	c #FAD539",
"y#	c #F7D338",
"z#	c #9C6627",
"A#	c #6B2119",
"B#	c #A06B28",
"C#	c #E9C636",
"D#	c #FAD538",
"E#	c #F5D137",
"F#	c #FAD537",
"G#	c #F8D336",
"H#	c #FAD536",
"I#	c #FAD436",
"J#	c #F9D436",
"K#	c #AE7E2A",
"L#	c #6A261D",
"M#	c #6E271E",
"N#	c #804116",
"O#	c #BF8606",
"P#	c #D79C02",
"Q#	c #CB9104",
"R#	c #A56B0C",
"S#	c #834316",
"T#	c #6D261E",
"U#	c #6F2B1E",
"V#	c #CCA22C",
"W#	c #FAD433",
"X#	c #F7D232",
"Y#	c #996524",
"Z#	c #6C261D",
"`#	c #6B261D",
" $	c #672119",
".$	c #6C261E",
"+$	c #6B251D",
"@$	c #A47126",
"#$	c #F2CC30",
"$$	c #FAD331",
"%$	c #FAD330",
"&$	c #F9D330",
"*$	c #B38427",
"=$	c #692A1D",
"-$	c #69261D",
";$	c #753917",
">$	c #7F4414",
",$	c #773A17",
"'$	c #67271C",
")$	c #68261D",
"!$	c #6A2E1D",
"~$	c #D2A828",
"{$	c #FAD22C",
"]$	c #F7D02B",
"^$	c #966421",
"/$	c #67251D",
"($	c #66251D",
"_$	c #612119",
":$	c #67261D",
"<$	c #64251C",
"[$	c #A87823",
"}$	c #F8CF2A",
"|$	c #FAD12A",
"1$	c #FAD129",
"2$	c #B88B24",
"3$	c #6B311D",
"4$	c #65261D",
"5$	c #7B451E",
"6$	c #B08321",
"7$	c #B38521",
"8$	c #B38520",
"9$	c #C29621",
"0$	c #F8CF25",
"a$	c #F9D025",
"b$	c #F7CE25",
"c$	c #94631E",
"d$	c #62251C",
"e$	c #5D2117",
"f$	c #62261C",
"g$	c #5F271B",
"h$	c #AC7E20",
"i$	c #F9D024",
"j$	c #F9D023",
"k$	c #BD9120",
"l$	c #6D381C",
"m$	c #60261C",
"n$	c #8D5C1D",
"o$	c #F5CC21",
"p$	c #F9CF21",
"q$	c #F9CF20",
"r$	c #F9CF1F",
"s$	c #F6CD1E",
"t$	c #91631B",
"u$	c #5D251B",
"v$	c #592117",
"w$	c #5E251B",
"x$	c #5E261C",
"y$	c #5D261C",
"z$	c #5D261B",
"A$	c #602D1B",
"B$	c #B1851C",
"C$	c #F9CE1D",
"D$	c #F9CE1C",
"E$	c #C2971C",
"F$	c #703F1B",
"G$	c #5C261B",
"H$	c #5B261B",
"I$	c #8A5C1A",
"J$	c #F5CA1B",
"K$	c #F9CE1B",
"L$	c #F9CE1A",
"M$	c #F9CD1A",
"N$	c #F9CD19",
"O$	c #F9CD18",
"P$	c #F6CB18",
"Q$	c #895C19",
"R$	c #59251B",
"S$	c #58251A",
"T$	c #552117",
"U$	c #59261B",
"V$	c #58261B",
"W$	c #58251B",
"X$	c #62341A",
"Y$	c #A87D19",
"Z$	c #B28818",
"`$	c #724519",
" %	c #57251B",
".%	c #7D5118",
"+%	c #CCA316",
"@%	c #D0A516",
"#%	c #D0A515",
"$%	c #CFA515",
"%%	c #CFA514",
"&%	c #CFA513",
"*%	c #B18715",
"=%	c #623619",
"-%	c #54251A",
";%	c #53241A",
">%	c #4F2115",
",%	c #53251A",
"'%	c #53261A",
")%	c #552819",
"!%	c #52251A",
"~%	c #512519",
"{%	c #582D19",
"]%	c #572D19",
"^%	c #562D19",
"/%	c #522819",
"(%	c #4F251A",
"_%	c #4F2519",
":%	c #4F2419",
"<%	c #4B1F15",
"[%	c #4E2519",
"}%	c #4D2519",
"|%	c #4C2519",
"1%	c #4B2519",
"2%	c #4A2519",
"3%	c #4A2418",
"4%	c #471F15",
"5%	c #492519",
"6%	c #492518",
"7%	c #482518",
"8%	c #472518",
"9%	c #462518",
"0%	c #452418",
"a%	c #411F13",
"b%	c #452417",
"c%	c #442417",
"d%	c #432417",
"e%	c #422417",
"f%	c #412417",
"g%	c #402417",
"  . . . . . . . . . . . . + + + + + + + + + + + @ @ @ @ @ @ @ @ ",
"# $ % % & & & & & & & * * * * * * = = = = = - - - - - - ; ; ; > ",
", - ' ) ) ) ) ) ) ! ! ! ! ! ! ! ~ ~ ~ ~ ~ { { { { { { ] ] ] ] ^ ",
"/ ( ] ] ] _ _ _ : < < < < < < [ [ [ [ [ [ } } | | | | 1 2 3 3 3 ",
"4 3 3 3 3 3 5 6 7 8 8 8 9 9 9 9 0 0 0 0 0 0 0 a a a b b c d e f ",
"g f e e e e h i j k k k k k l l l l m m m n n o o o p p q r s t ",
"u t v v v w t x y z A B C C C C C D D D D E E E E E F G H I J K ",
"L J M M M N O P Q R S T U U V V V V W X Y Z Z Z Z `  ...+.@.#.#.",
"$.#.%.%.%.%.&.*.=.-.;.>.,.,.,.,.'.).!.~.{.].^././.(._.:.<.[.}.}.",
"|.}.1.}.}.}.2.3.4.5.6.7.2.2.8.9.0.a.b.c.d.e.f.g.g.h.i.j.k.l.f.m.",
"n.o.p.p.q.q.r.s.t.u.v.w.x.x.y.z.A.c.c.c.B.C.D.E.E.F.G.H.I.J.D.K.",
"L.D.M.M.M.N.K.O.P.Q.R.S.T.U.V.W.c.c.c.X.Y.Z.`.`.`. +.+++@+#+$+%+",
"&+$+*+*+*+*+%+=+-+;+>+,+'+)+!+c.c.c.~+{+]+^+/+(+(+_+:+<+[+}+|+|+",
"1+|+2+2+2+2+3+4+5+6+7+8+3+9+0+b.X.a+b+c+d+e+f+g+h+i+j+k+l+m+h+n+",
"o+p+h+h+p+p+p+q+r+s+t+u+v+w+x+y+z+A+B+C+D+D+E+F+G+H+I+J+K+L+M+N+",
"O+M+P+P+P+Q+N+R+S+T+U+V+W+W+X+Y+Z+`+D+D+D+D+ @.@+@@@#@$@%@&@*@*@",
"=@*@-@-@-@-@;@>@,@'@)@!@~@~@~@{@]@^@/@(@_@:@<@[@}@|@1@2@3@4@5@5@",
"6@5@7@7@8@7@8@9@0@a@b@c@d@e@e@e@f@g@h@i@j@k@l@A.m@n@o@p@q@r@s@s@",
"t@s@u@v@w@x@y@z@A@B@C@D@y@E@F@x@x@x@G@H@I@J@c.c.K@L@M@N@O@P@Q@R@",
"S@Q@T@U@V@W@R@X@Y@Z@`@ #.#+#@###$#%#&#c.c.c.c.B.*#=#-#;#>#,#'#)#",
"!#~#{#]#^#/#(#_#:#:#<#[#}#|#1#2#3#4#X.c.c.c.B.5#6#7#8#9#0#a#b#b#",
"c#b#d#e#f#f#g#h#i#j#k#l#j#m#n#o#p#q#b.c.r#a+s#t#u#v#w#x#y#z#p#p#",
"A#p#p#B#C#D#D#E#F#F#G#H#I#J#K#L#M#N#O#P#Q#R#S#T#T#U#V#W#X#Y#Z#`#",
" $Z#.$+$@$#$$$$$$$%$%$%$&$*$=$-$-$-$;$>$,$'$)$)$)$!$~${$]$^$/$($",
"_$/$:$:$<$[$}$|$|$|$|$1$2$3$4$5$6$7$7$8$8$8$8$8$8$9$0$a$b$c$d$d$",
"e$d$f$f$f$g$h$i$j$j$j$k$l$m$m$n$o$p$p$p$q$q$q$q$r$r$r$r$s$t$u$u$",
"v$w$x$y$y$z$A$B$C$D$E$F$G$G$H$I$J$K$L$M$M$M$N$N$N$O$O$O$P$Q$R$S$",
"T$R$U$U$V$V$W$X$Y$Z$`$ % % % %.%+%@%#%$%$%$%$%%%%%%%%%&%*%=%-%;%",
">%-%-%-%-%,%,%,%'%)%!%!%!%!%!%~%{%{%{%]%]%]%]%]%]%]%^%^%/%(%_%:%",
"<%:%_%_%_%_%_%_%[%[%[%[%[%}%}%}%}%}%}%|%|%|%|%|%|%1%1%1%1%1%2%3%",
"4%3%1%2%2%2%2%2%2%2%5%5%5%6%7%7%7%7%7%7%7%8%8%8%8%8%9%9%9%9%9%0%",
"a%b%b%b%b%b%b%c%c%c%c%c%c%c%d%d%d%d%e%e%e%e%e%e%e%f%f%f%f%f%f%g%"};
