/* XPM */
static char * C:\Users\posera\Desktop\CreditProjekt\ltcbaset\credit_master\share\pixmaps\bitcoin16_xpm[] = {
"16 16 215 2",
"  	c None",
". 	c #D0262A",
"+ 	c #D02628",
"@ 	c #CE2628",
"# 	c #CC2628",
"$ 	c #CA2628",
"% 	c #CF2A2B",
"& 	c #CE2A2B",
"* 	c #CD2E2E",
"= 	c #CD302F",
"- 	c #CC302F",
"; 	c #CB302F",
"> 	c #CA302F",
", 	c #C92D2D",
"' 	c #CA292B",
") 	c #C22626",
"! 	c #C52A2A",
"~ 	c #C62A2B",
"{ 	c #C53431",
"] 	c #DD956F",
"^ 	c #E7B785",
"/ 	c #E7B784",
"( 	c #E7B783",
"_ 	c #DA906A",
": 	c #C0302E",
"< 	c #B82626",
"[ 	c #BC2929",
"} 	c #BC2A29",
"| 	c #BF3F37",
"1 	c #F0D390",
"2 	c #F8EA9D",
"3 	c #EED18F",
"4 	c #EDD08E",
"5 	c #EDD08D",
"6 	c #EDD08C",
"7 	c #FAEB9B",
"8 	c #EDCD89",
"9 	c #BA3A32",
"0 	c #AE2624",
"a 	c #B22928",
"b 	c #B32928",
"c 	c #B73F34",
"d 	c #EED084",
"e 	c #DBA46C",
"f 	c #B43D33",
"g 	c #B9522B",
"h 	c #CD7B1F",
"i 	c #C97520",
"j 	c #B03E31",
"k 	c #B23E33",
"l 	c #DDAB6D",
"m 	c #ECCA7D",
"n 	c #B23A30",
"o 	c #A62422",
"p 	c #A92826",
"q 	c #A92926",
"r 	c #AF3E31",
"s 	c #EDCD79",
"t 	c #D1955C",
"u 	c #A72926",
"v 	c #B5481C",
"w 	c #DB8E08",
"x 	c #F3B100",
"y 	c #D89405",
"z 	c #A83621",
"A 	c #A52A27",
"B 	c #D49D5E",
"C 	c #EAC772",
"D 	c #A9392D",
"E 	c #9C2420",
"F 	c #9F2825",
"G 	c #A02925",
"H 	c #A63D2E",
"I 	c #EBCB6D",
"J 	c #CE9354",
"K 	c #9E2B24",
"L 	c #C8760E",
"M 	c #F2B100",
"N 	c #E5A702",
"O 	c #C78526",
"P 	c #9D3029",
"Q 	c #9B2A25",
"R 	c #D19B55",
"S 	c #E9C467",
"T 	c #A1382B",
"U 	c #922420",
"V 	c #962823",
"W 	c #962824",
"X 	c #9E3C2B",
"Y 	c #EAC862",
"Z 	c #CA914C",
"` 	c #942823",
" .	c #B06014",
"..	c #D9A926",
"+.	c #E4BD4E",
"@.	c #EFD17D",
"#.	c #C78C58",
"$.	c #932E26",
"%.	c #CD994C",
"&.	c #E7C25B",
"*.	c #983828",
"=.	c #88241E",
"-.	c #8C2722",
";.	c #963C29",
">.	c #E9C556",
",.	c #C68F44",
"'.	c #8B2822",
").	c #90331E",
"!.	c #B87E38",
"~.	c #DCB558",
"{.	c #E7C460",
"].	c #D6A841",
"^.	c #9F4D19",
"/.	c #CA9744",
"(.	c #E5BF50",
"_.	c #903726",
":.	c #7E221C",
"<.	c #852E22",
"[.	c #9F552C",
"}.	c #8D3B26",
"|.	c #E7C24A",
"1.	c #C28D3B",
"2.	c #8F4026",
"3.	c #9B512A",
"4.	c #822A1F",
"5.	c #AD6613",
"6.	c #DEA108",
"7.	c #ECAC00",
"8.	c #BD790B",
"9.	c #C9993A",
"0.	c #E4BC45",
"a.	c #873623",
"b.	c #76221C",
"c.	c #A4652C",
"d.	c #F2D043",
"e.	c #BC8731",
"f.	c #E6BF3F",
"g.	c #CA9E36",
"h.	c #C99834",
"i.	c #E0B83B",
"j.	c #924D21",
"k.	c #D08C07",
"l.	c #DD9F02",
"m.	c #9A5712",
"n.	c #C39233",
"o.	c #E2B939",
"p.	c #7F3621",
"q.	c #6C221A",
"r.	c #864623",
"s.	c #CEA131",
"t.	c #F2CD36",
"u.	c #F8D337",
"v.	c #F1CC34",
"w.	c #F9D436",
"x.	c #B07D2B",
"y.	c #702C1B",
"z.	c #AF710B",
"A.	c #B97C09",
"B.	c #8F5013",
"C.	c #6D271D",
"D.	c #C2922A",
"E.	c #E0B72E",
"F.	c #76351E",
"G.	c #622218",
"H.	c #66251C",
"I.	c #854D20",
"J.	c #D2A627",
"K.	c #F9D12A",
"L.	c #F9D129",
"M.	c #B28324",
"N.	c #6B311D",
"O.	c #A36F1F",
"P.	c #B5841E",
"Q.	c #B5841D",
"R.	c #B17F1F",
"S.	c #B5841F",
"T.	c #E1B723",
"U.	c #DEB423",
"V.	c #6E341C",
"W.	c #5A2218",
"X.	c #5D251B",
"Y.	c #5D261B",
"Z.	c #84531C",
"`.	c #D2A81D",
" +	c #B5881C",
".+	c #64301B",
"++	c #67331B",
"@+	c #D1A61B",
"#+	c #EEC31A",
"$+	c #EEC319",
"%+	c #EEC318",
"&+	c #CA9F19",
"*+	c #643219",
"=+	c #502016",
"-+	c #532519",
";+	c #53251A",
">+	c #673B19",
",+	c #592D19",
"'+	c #52251A",
")+	c #512519",
"!+	c #704618",
"~+	c #734918",
"{+	c #724918",
"]+	c #724917",
"^+	c #714917",
"/+	c #683F18",
"(+	c #4E2419",
"_+	c #462014",
":+	c #492417",
"<+	c #492418",
"[+	c #482418",
"}+	c #482417",
"|+	c #472417",
"1+	c #462417",
"2+	c #452417",
"  . + + + + @ @ @ @ @ # # # # # ",
"$ % & & * = - - - ; ; > > > , ' ",
") ! ~ { ] ^ ^ ^ / / / ( ( ( _ : ",
"< [ } | 1 2 3 4 4 5 5 6 6 7 8 9 ",
"0 a b c d e f f g h i j k l m n ",
"o p q r s t u v w x y z A B C D ",
"E F G H I J K L M N O P Q R S T ",
"U V W X Y Z `  ...+.@.#.$.%.&.*.",
"=.-.-.;.>.,.'.).!.~.{.].^./.(._.",
":.<.[.}.|.1.2.3.4.5.6.7.8.9.0.a.",
"b.c.d.e.f.g.h.i.j.k.x l.m.n.o.p.",
"q.r.s.t.u.v.w.x.y.z.A.B.C.D.E.F.",
"G.H.I.J.K.L.M.N.O.P.Q.R.S.T.U.V.",
"W.X.Y.Z.`. +.+++@+#+#+#+$+%+&+*+",
"=+-+;+;+>+,+'+)+!+~+{+{+]+^+/+(+",
"_+:+<+<+<+<+[+}+|+|+|+1+1+1+2+2+"};
